<svg xmlns="http://www.w3.org/2000/svg" viewBox="0 0 740.61 290.52"><defs><style>.cls-1{fill:#dc143c;}.cls-2{fill:#aa052d;}.cls-3{fill:#0a71e9;}.cls-4{fill:#242062;}</style></defs><title>logo-datapages</title><g id="Layer_2" data-name="Layer 2"><g id="Layer_1-2" data-name="Layer 1"><polygon class="cls-1" points="130.72 2.4 128.7 0 83.55 0 81.54 1.69 67.89 79.1 118.82 69.85 130.72 2.4"/><polygon class="cls-2" points="107.88 124.76 109.53 123.1 118.82 69.85 67.89 79.1 7.22 90.13 59.38 133.5 107.88 124.76"/><polygon class="cls-1" points="99.85 167.14 59.38 133.5 7.22 90.13 5.5 91.89 0 144.77 0.71 146.54 88.11 220.68 91.44 219.48 100.54 169.07 99.85 167.14"/><polygon class="cls-3" points="96.81 288.12 98.83 290.52 143.98 290.52 145.99 288.83 159.64 211.42 108.7 220.68 96.81 288.12"/><polygon class="cls-4" points="119.65 165.76 118 167.42 108.7 220.68 108.7 220.68 159.64 211.42 220.31 200.39 168.14 157.02 119.65 165.76"/><polygon class="cls-3" points="226.82 143.98 139.42 69.85 136.09 71.04 126.99 121.45 127.68 123.38 168.14 157.02 220.31 200.39 222.03 198.63 227.53 145.75 226.82 143.98"/><path d="M314.75,173.07c-2.36,22.47-16.22,38.14-39.77,38.14H244.19l8-76.07h30.26C306.21,135.14,317.16,150.16,314.75,173.07Zm-17,0c1.62-15.45-4.13-24.42-19-24.42H267.19L262,197.81h12C289,197.81,296.22,188,297.79,173.07Z"/><path d="M347.92,211.21l-.34-6.05a24.07,24.07,0,0,1-17.66,7.67c-11.35,0-17.81-6.38-16.79-16.1.92-8.75,5.88-14.8,20.93-18.15l9.84-2.16c4.42-1,5.94-2.06,6.25-5,.33-3.14-1.65-4.87-8.78-4.87a55.15,55.15,0,0,0-22.21,4.65l2.52-12.64a59.29,59.29,0,0,1,22.71-4.32c17.18,0,23,6.59,21.68,18.91l-2.52,24a97.56,97.56,0,0,0-.29,14.05Zm.3-15.24,1.25-11.88a28.21,28.21,0,0,1-5.26,1.73l-5.54,1.29c-6.55,1.62-10,3.46-10.44,7.89s2.58,6.27,7.33,6.27A17.39,17.39,0,0,0,348.22,196Z"/><path d="M392.54,199.86a25.86,25.86,0,0,0,9.57-1.62l-2.48,12.32A36.64,36.64,0,0,1,388,212.5c-13,0-20.05-6.59-18.69-19.55l5.21-49.49,16.22-2.27-1.54,14.7h17.61l-2.27,11.34H388l-2.51,23.88C384.81,197.38,387.57,199.86,392.54,199.86Z"/><path d="M439.87,211.21l-.34-6.05a24.07,24.07,0,0,1-17.66,7.67c-11.35,0-17.81-6.38-16.79-16.1C406,188,411,181.93,426,178.58l9.84-2.16c4.43-1,5.94-2.06,6.25-5,.33-3.14-1.65-4.87-8.78-4.87a55.15,55.15,0,0,0-22.21,4.65l2.52-12.64a59.33,59.33,0,0,1,22.71-4.32c17.18,0,23,6.59,21.68,18.91l-2.52,24a99,99,0,0,0-.29,14.05Zm.3-15.24,1.25-11.88a28.21,28.21,0,0,1-5.26,1.73l-5.54,1.29c-6.54,1.62-10,3.46-10.44,7.89s2.58,6.27,7.33,6.27A17.39,17.39,0,0,0,440.17,196Z"/><path d="M526.21,159.67C524.61,174.9,513,184,496,184H481.3l-2.86,27.23H462l8-76.07h30.8C518.42,135.14,527.84,144.22,526.21,159.67Zm-16.1,0c.76-7.24-3.33-11.45-11.87-11.45H485.06l-2.43,23.12h13.62C504.46,171.34,509.35,166.91,510.11,159.67Z"/><path d="M556.13,211.21l-.34-6.05a24.07,24.07,0,0,1-17.66,7.67c-11.34,0-17.81-6.38-16.78-16.1.92-8.75,5.87-14.8,20.92-18.15l9.84-2.16c4.43-1,5.95-2.06,6.25-5,.33-3.14-1.65-4.87-8.78-4.87a55.11,55.11,0,0,0-22.2,4.65l2.51-12.64a59.35,59.35,0,0,1,22.72-4.32c17.18,0,23,6.59,21.67,18.91l-2.52,24a99,99,0,0,0-.29,14.05Zm.3-15.24,1.25-11.88a28.21,28.21,0,0,1-5.26,1.73l-5.54,1.29c-6.54,1.62-10,3.46-10.44,7.89s2.58,6.27,7.34,6.27A17.38,17.38,0,0,0,556.43,196Z"/><path d="M636.28,155.89l-5.52,52.51c-1.69,16.1-14,24.85-33.08,24.85-8.1,0-15.09-1.4-21.17-5.19l2.64-11.77a38.66,38.66,0,0,0,19.07,4.64c11.13,0,15.49-3.45,16.36-11.77l.45-4.22a22.83,22.83,0,0,1-15.17,5.51c-14.69,0-24.61-10.48-22.76-28.09,1.76-16.75,13.22-28.09,28.88-28.09,7.13,0,11.65,2.27,14.77,6.48l1.38-4.86ZM616.1,194.68,618.69,170c-2.65-2.48-6.09-3.67-10.41-3.67-9.19,0-14.23,6.81-15.19,16s3.07,16,11.93,16A18.08,18.08,0,0,0,616.1,194.68Z"/><path d="M689.45,188.73H652.71c.62,8.54,5.71,11.46,14.9,11.46a40.64,40.64,0,0,0,19.54-5l-2.66,13c-6.54,3.57-13.67,4.65-20.37,4.65-20,0-28.68-10.91-26.75-29.28,1.85-17.61,12.48-29.28,30.74-29.28,16.75,0,24.28,10.59,22.53,27.23C690.43,183.55,689.87,186.79,689.45,188.73Zm-35.9-10H676c.52-8.11-2.51-12.11-9.65-12.11C658.82,166.58,655.16,170.58,653.55,178.69Z"/><path d="M723.18,195.76c.34-3.24-1.81-4.43-9.19-6.16l-4.65-1c-11-2.27-16.28-7.57-15.27-17.18,1.12-10.59,9.7-17.18,25.58-17.18,9.18,0,15.72,1.51,21,4.1l-2.45,12a46.12,46.12,0,0,0-18.69-4.11c-6.59,0-9.13,1.51-9.46,4.65-.36,3.45,2.66,4.53,8.57,5.83l4.66,1c10.67,2.27,17,6.59,15.92,17.08-1,9.83-9.57,18-27.07,18-8.54,0-15.91-1.84-21.42-4.86L693,196.08a46.06,46.06,0,0,0,20.24,4.76C719.73,200.84,722.81,199.21,723.18,195.76Z"/></g></g></svg>