<?xml version="1.0" standalone="no"?>
<!DOCTYPE svg PUBLIC "-//W3C//DTD SVG 20010904//EN"
 "http://www.w3.org/TR/2001/REC-SVG-20010904/DTD/svg10.dtd">
<svg version="1.0" xmlns="http://www.w3.org/2000/svg"
 width="260.000000pt" height="260.000000pt" viewBox="0 0 260.000000 260.000000"
 preserveAspectRatio="xMidYMid meet">
<metadata>
Created by potrace 1.11, written by Peter Selinger 2001-2013
</metadata>
<g transform="translate(0.000000,260.000000) scale(0.100000,-0.100000)"
fill="#000000" stroke="none">
<path d="M1015 2590 c-5 -9 -125 -667 -125 -688 0 -5 -120 -30 -267 -57 -148
-26 -274 -53 -281 -59 -13 -13 -66 -466 -56 -488 5 -13 767 -661 782 -665 21
-7 33 30 66 217 20 113 39 215 41 227 4 19 -24 46 -179 175 -102 84 -184 154
-183 155 1 1 97 18 212 39 116 20 215 42 222 48 7 6 49 220 93 476 45 256 87
497 94 537 9 50 10 75 2 83 -13 13 -412 14 -421 0z"/>
<path d="M1495 1948 c-12 -56 -75 -414 -75 -430 0 -11 69 -75 181 -168 106
-87 175 -152 168 -154 -8 -3 -104 -21 -213 -40 -110 -20 -205 -41 -212 -48 -6
-7 -31 -123 -54 -258 -23 -135 -64 -373 -91 -529 -28 -156 -48 -290 -45 -297
4 -11 48 -14 215 -14 210 0 211 0 216 23 2 12 30 168 61 347 31 179 58 326 59
328 2 2 123 25 270 52 148 27 272 53 277 58 8 8 57 411 58 474 0 19 -772 678
-795 678 -8 0 -17 -10 -20 -22z"/>
</g>
</svg>
