<?xml version="1.0" encoding="UTF-8"?>
<svg width="130px" height="50px" viewBox="0 0 130 50" version="1.1" xmlns="http://www.w3.org/2000/svg" xmlns:xlink="http://www.w3.org/1999/xlink">
    <!-- Generator: Sketch 42 (36781) - http://www.bohemiancoding.com/sketch -->
    <title>logo-bigzeta</title>
    <desc>Created with Sketch.</desc>
    <defs>
        <path d="M21.735814,1.96906977 C21.735814,3.0044186 22.5748837,3.84348837 23.6097674,3.84348837 C24.6448837,3.84348837 25.4839535,3.0044186 25.4839535,1.96906977 C25.4839535,0.934186047 24.6448837,0.0951162791 23.6097674,0.0951162791 C22.5748837,0.0951162791 21.735814,0.934186047 21.735814,1.96906977 Z M45.1627907,1.96906977 C45.1627907,2.74534884 45.792093,3.37488372 46.5683721,3.37488372 C47.3446512,3.37488372 47.974186,2.74534884 47.974186,1.96906977 C47.974186,1.1927907 47.3446512,0.563488372 46.5683721,0.563488372 C45.792093,0.563488372 45.1627907,1.1927907 45.1627907,1.96906977 Z M14.5513953,1.96906977 C14.5513953,2.74534884 15.1809302,3.37488372 15.9569767,3.37488372 C16.7332558,3.37488372 17.3625581,2.74534884 17.3625581,1.96906977 C17.3625581,1.1927907 16.7332558,0.563488372 15.9569767,0.563488372 C15.1809302,0.563488372 14.5513953,1.1927907 14.5513953,1.96906977 Z M37.9783721,1.96906977 C37.9783721,2.48674419 38.3981395,2.90627907 38.9155814,2.90627907 C39.4330233,2.90627907 39.8527907,2.48674419 39.8527907,1.96906977 C39.8527907,1.45162791 39.4330233,1.03209302 38.9155814,1.03209302 C38.3981395,1.03209302 37.9783721,1.45162791 37.9783721,1.96906977 Z M7.3672093,1.96906977 C7.3672093,2.48674419 7.78651163,2.90627907 8.30418605,2.90627907 C8.82162791,2.90627907 9.24116279,2.48674419 9.24116279,1.96906977 C9.24116279,1.45162791 8.82162791,1.03209302 8.30418605,1.03209302 C7.78651163,1.03209302 7.3672093,1.45162791 7.3672093,1.96906977 Z M30.794186,1.96906977 C30.794186,2.22790698 31.0039535,2.43767442 31.2627907,2.43767442 C31.5213953,2.43767442 31.7311628,2.22790698 31.7311628,1.96906977 C31.7311628,1.71046512 31.5213953,1.50069767 31.2627907,1.50069767 C31.0039535,1.50069767 30.794186,1.71046512 30.794186,1.96906977 Z M0.18255814,1.96906977 C0.18255814,2.22790698 0.39255814,2.43767442 0.651395349,2.43767442 C0.91,2.43767442 1.12,2.22790698 1.12,1.96906977 C1.12,1.71046512 0.91,1.50069767 0.651395349,1.50069767 C0.39255814,1.50069767 0.18255814,1.71046512 0.18255814,1.96906977 Z M44.225814,9.62209302 C44.225814,10.9160465 45.2746512,11.9648837 46.5683721,11.9648837 C47.2069767,11.9648837 47.785814,11.7095349 48.2083721,11.2953488 L48.2083721,7.94883721 C47.785814,7.53465116 47.2069767,7.27930233 46.5683721,7.27930233 C45.2746512,7.27930233 44.225814,8.32813953 44.225814,9.62209302 Z M37.0413953,9.62209302 C37.0413953,10.6572093 37.8804651,11.4962791 38.9155814,11.4962791 C39.9506977,11.4962791 40.7897674,10.6572093 40.7897674,9.62209302 C40.7897674,8.58697674 39.9506977,7.74790698 38.9155814,7.74790698 C37.8804651,7.74790698 37.0413953,8.58697674 37.0413953,9.62209302 Z M29.8572093,9.62209302 C29.8572093,10.3983721 30.4865116,11.0276744 31.2627907,11.0276744 C32.0390698,11.0276744 32.6683721,10.3983721 32.6683721,9.62209302 C32.6683721,8.84581395 32.0390698,8.21651163 31.2627907,8.21651163 C30.4865116,8.21651163 29.8572093,8.84581395 29.8572093,9.62209302 Z M22.6727907,9.62209302 C22.6727907,10.1397674 23.0925581,10.5590698 23.6097674,10.5590698 C24.1274419,10.5590698 24.5469767,10.1397674 24.5469767,9.62209302 C24.5469767,9.1044186 24.1274419,8.68511628 23.6097674,8.68511628 C23.0925581,8.68511628 22.6727907,9.1044186 22.6727907,9.62209302 Z M15.4886047,9.62209302 C15.4886047,9.88069767 15.6981395,10.0904651 15.9569767,10.0904651 C16.215814,10.0904651 16.4255814,9.88069767 16.4255814,9.62209302 C16.4255814,9.36348837 16.215814,9.15348837 15.9569767,9.15348837 C15.6981395,9.15348837 15.4886047,9.36348837 15.4886047,9.62209302 Z M7.8355814,9.62209302 C7.8355814,9.88069767 8.04534884,10.0904651 8.30418605,10.0904651 C8.5627907,10.0904651 8.77255814,9.88069767 8.77255814,9.62209302 C8.77255814,9.36348837 8.5627907,9.15348837 8.30418605,9.15348837 C8.04534884,9.15348837 7.8355814,9.36348837 7.8355814,9.62209302 Z M0.18255814,9.62209302 C0.18255814,9.88069767 0.39255814,10.0904651 0.651395349,10.0904651 C0.91,10.0904651 1.12,9.88069767 1.12,9.62209302 C1.12,9.36348837 0.91,9.15348837 0.651395349,9.15348837 C0.39255814,9.15348837 0.18255814,9.36348837 0.18255814,9.62209302 Z M43.2886047,17.2751163 C43.2886047,19.0862791 44.7572093,20.5548837 46.5683721,20.5548837 C47.165814,20.5548837 47.725814,20.3951163 48.2083721,20.1160465 L48.2083721,14.4337209 C47.725814,14.1546512 47.165814,13.9951163 46.5683721,13.9951163 C44.7572093,13.9951163 43.2886047,15.4634884 43.2886047,17.2751163 Z M36.1044186,17.2751163 C36.1044186,18.8276744 37.3630233,20.0860465 38.9155814,20.0860465 C40.4681395,20.0860465 41.7267442,18.8276744 41.7267442,17.2751163 C41.7267442,15.722093 40.4681395,14.4637209 38.9155814,14.4637209 C37.3630233,14.4637209 36.1044186,15.722093 36.1044186,17.2751163 Z M29.3886047,17.2751163 C29.3886047,18.31 30.2276744,19.1490698 31.2627907,19.1490698 C32.2976744,19.1490698 33.1369767,18.31 33.1369767,17.2751163 C33.1369767,16.2397674 32.2976744,15.4006977 31.2627907,15.4006977 C30.2276744,15.4006977 29.3886047,16.2397674 29.3886047,17.2751163 Z M22.204186,17.2751163 C22.204186,18.0513953 22.8334884,18.6804651 23.6097674,18.6804651 C24.3862791,18.6804651 25.0155814,18.0513953 25.0155814,17.2751163 C25.0155814,16.4988372 24.3862791,15.8693023 23.6097674,15.8693023 C22.8334884,15.8693023 22.204186,16.4988372 22.204186,17.2751163 Z M15.0197674,17.2751163 C15.0197674,17.7923256 15.4395349,18.212093 15.9569767,18.212093 C16.4744186,18.212093 16.8939535,17.7923256 16.8939535,17.2751163 C16.8939535,16.7574419 16.4744186,16.3376744 15.9569767,16.3376744 C15.4395349,16.3376744 15.0197674,16.7574419 15.0197674,17.2751163 Z M7.8355814,17.2751163 C7.8355814,17.5337209 8.04534884,17.7434884 8.30418605,17.7434884 C8.5627907,17.7434884 8.77255814,17.5337209 8.77255814,17.2751163 C8.77255814,17.0160465 8.5627907,16.8065116 8.30418605,16.8065116 C8.04534884,16.8065116 7.8355814,17.0160465 7.8355814,17.2751163 Z M0.18255814,17.2751163 C0.18255814,17.5337209 0.39255814,17.7434884 0.651395349,17.7434884 C0.91,17.7434884 1.12,17.5337209 1.12,17.2751163 C1.12,17.0160465 0.91,16.8065116 0.651395349,16.8065116 C0.39255814,16.8065116 0.18255814,17.0160465 0.18255814,17.2751163 Z M42.82,24.9276744 C42.82,26.997907 44.4983721,28.6760465 46.5683721,28.6760465 C47.1565116,28.6760465 47.7127907,28.5406977 48.2083721,28.2993023 L48.2083721,21.5562791 C47.7127907,21.3148837 47.1565116,21.1795349 46.5683721,21.1795349 C44.4983721,21.1795349 42.82,22.8574419 42.82,24.9276744 Z M35.635814,24.9276744 C35.635814,26.7393023 37.104186,28.2074419 38.9155814,28.2074419 C40.7269767,28.2074419 42.1955814,26.7393023 42.1955814,24.9276744 C42.1955814,23.1165116 40.7269767,21.647907 38.9155814,21.647907 C37.104186,21.647907 35.635814,23.1165116 35.635814,24.9276744 Z M28.4513953,24.9276744 C28.4513953,26.4802326 29.7102326,27.7390698 31.2627907,27.7390698 C32.8153488,27.7390698 34.0739535,26.4802326 34.0739535,24.9276744 C34.0739535,23.3751163 32.8153488,22.1165116 31.2627907,22.1165116 C29.7102326,22.1165116 28.4513953,23.3751163 28.4513953,24.9276744 Z M21.735814,24.9276744 C21.735814,25.9630233 22.5748837,26.802093 23.6097674,26.802093 C24.6448837,26.802093 25.4839535,25.9630233 25.4839535,24.9276744 C25.4839535,23.8927907 24.6448837,23.0537209 23.6097674,23.0537209 C22.5748837,23.0537209 21.735814,23.8927907 21.735814,24.9276744 Z M14.5513953,24.9276744 C14.5513953,25.7039535 15.1809302,26.3334884 15.9569767,26.3334884 C16.7332558,26.3334884 17.3625581,25.7039535 17.3625581,24.9276744 C17.3625581,24.1513953 16.7332558,23.5223256 15.9569767,23.5223256 C15.1809302,23.5223256 14.5513953,24.1513953 14.5513953,24.9276744 Z M7.3672093,24.9276744 C7.3672093,25.4453488 7.78651163,25.8648837 8.30418605,25.8648837 C8.82162791,25.8648837 9.24116279,25.4453488 9.24116279,24.9276744 C9.24116279,24.4102326 8.82162791,23.9906977 8.30418605,23.9906977 C7.78651163,23.9906977 7.3672093,24.4102326 7.3672093,24.9276744 Z M0.18255814,24.9276744 C0.18255814,25.1867442 0.39255814,25.3962791 0.651395349,25.3962791 C0.91,25.3962791 1.12,25.1867442 1.12,24.9276744 C1.12,24.6690698 0.91,24.4593023 0.651395349,24.4593023 C0.39255814,24.4593023 0.18255814,24.6690698 0.18255814,24.9276744 Z M43.2886047,32.5806977 C43.2886047,34.3918605 44.7572093,35.8604651 46.5683721,35.8604651 C47.165814,35.8604651 47.725814,35.7006977 48.2083721,35.4216279 L48.2083721,29.7395349 C47.725814,29.4606977 47.165814,29.3009302 46.5683721,29.3009302 C44.7572093,29.3009302 43.2886047,30.7693023 43.2886047,32.5806977 Z M36.1044186,32.5806977 C36.1044186,34.1332558 37.3630233,35.3918605 38.9155814,35.3918605 C40.4681395,35.3918605 41.7267442,34.1332558 41.7267442,32.5806977 C41.7267442,31.0281395 40.4681395,29.7693023 38.9155814,29.7693023 C37.3630233,29.7693023 36.1044186,31.0281395 36.1044186,32.5806977 Z M29.3886047,32.5806977 C29.3886047,33.6155814 30.2276744,34.4548837 31.2627907,34.4548837 C32.2976744,34.4548837 33.1369767,33.6155814 33.1369767,32.5806977 C33.1369767,31.5455814 32.2976744,30.7062791 31.2627907,30.7062791 C30.2276744,30.7062791 29.3886047,31.5455814 29.3886047,32.5806977 Z M22.204186,32.5806977 C22.204186,33.3569767 22.8334884,33.9862791 23.6097674,33.9862791 C24.3862791,33.9862791 25.0155814,33.3569767 25.0155814,32.5806977 C25.0155814,31.8044186 24.3862791,31.1751163 23.6097674,31.1751163 C22.8334884,31.1751163 22.204186,31.8044186 22.204186,32.5806977 Z M15.0197674,32.5806977 C15.0197674,33.0983721 15.4395349,33.5176744 15.9569767,33.5176744 C16.4744186,33.5176744 16.8939535,33.0983721 16.8939535,32.5806977 C16.8939535,32.0630233 16.4744186,31.6437209 15.9569767,31.6437209 C15.4395349,31.6437209 15.0197674,32.0630233 15.0197674,32.5806977 Z M7.8355814,32.5806977 C7.8355814,32.8393023 8.04534884,33.0490698 8.30418605,33.0490698 C8.5627907,33.0490698 8.77255814,32.8393023 8.77255814,32.5806977 C8.77255814,32.3218605 8.5627907,32.112093 8.30418605,32.112093 C8.04534884,32.112093 7.8355814,32.3218605 7.8355814,32.5806977 Z M0.18255814,32.5806977 C0.18255814,32.8393023 0.39255814,33.0490698 0.651395349,33.0490698 C0.91,33.0490698 1.12,32.8393023 1.12,32.5806977 C1.12,32.3218605 0.91,32.112093 0.651395349,32.112093 C0.39255814,32.112093 0.18255814,32.3218605 0.18255814,32.5806977 Z M44.225814,40.2337209 C44.225814,41.5272093 45.2746512,42.5762791 46.5683721,42.5762791 C47.2069767,42.5762791 47.785814,42.3206977 48.2083721,41.9065116 L48.2083721,38.5604651 C47.785814,38.1462791 47.2069767,37.8909302 46.5683721,37.8909302 C45.2746512,37.8909302 44.225814,38.9397674 44.225814,40.2337209 Z M37.0413953,40.2337209 C37.0413953,41.2686047 37.8804651,42.1076744 38.9155814,42.1076744 C39.9506977,42.1076744 40.7897674,41.2686047 40.7897674,40.2337209 C40.7897674,39.1983721 39.9506977,38.3593023 38.9155814,38.3593023 C37.8804651,38.3593023 37.0413953,39.1983721 37.0413953,40.2337209 Z M29.8572093,40.2337209 C29.8572093,41.01 30.4865116,41.6390698 31.2627907,41.6390698 C32.0390698,41.6390698 32.6683721,41.01 32.6683721,40.2337209 C32.6683721,39.4572093 32.0390698,38.827907 31.2627907,38.827907 C30.4865116,38.827907 29.8572093,39.4572093 29.8572093,40.2337209 Z M22.6727907,40.2337209 C22.6727907,40.7509302 23.0925581,41.1706977 23.6097674,41.1706977 C24.1274419,41.1706977 24.5469767,40.7509302 24.5469767,40.2337209 C24.5469767,39.7160465 24.1274419,39.2962791 23.6097674,39.2962791 C23.0925581,39.2962791 22.6727907,39.7160465 22.6727907,40.2337209 Z M15.4886047,40.2337209 C15.4886047,40.4923256 15.6981395,40.702093 15.9569767,40.702093 C16.215814,40.702093 16.4255814,40.4923256 16.4255814,40.2337209 C16.4255814,39.9746512 16.215814,39.7648837 15.9569767,39.7648837 C15.6981395,39.7648837 15.4886047,39.9746512 15.4886047,40.2337209 Z M7.8355814,40.2337209 C7.8355814,40.4923256 8.04534884,40.702093 8.30418605,40.702093 C8.5627907,40.702093 8.77255814,40.4923256 8.77255814,40.2337209 C8.77255814,39.9746512 8.5627907,39.7648837 8.30418605,39.7648837 C8.04534884,39.7648837 7.8355814,39.9746512 7.8355814,40.2337209 Z M0.18255814,40.2337209 C0.18255814,40.4923256 0.39255814,40.702093 0.651395349,40.702093 C0.91,40.702093 1.12,40.4923256 1.12,40.2337209 C1.12,39.9746512 0.91,39.7648837 0.651395349,39.7648837 C0.39255814,39.7648837 0.18255814,39.9746512 0.18255814,40.2337209 Z M21.735814,47.8862791 C21.735814,48.9216279 22.5748837,49.7606977 23.6097674,49.7606977 C24.6448837,49.7606977 25.4839535,48.9216279 25.4839535,47.8862791 C25.4839535,46.8513953 24.6448837,46.0123256 23.6097674,46.0123256 C22.5748837,46.0123256 21.735814,46.8513953 21.735814,47.8862791 Z M45.1627907,47.8862791 C45.1627907,48.6625581 45.792093,49.292093 46.5683721,49.292093 C47.3446512,49.292093 47.974186,48.6625581 47.974186,47.8862791 C47.974186,47.11 47.3446512,46.4809302 46.5683721,46.4809302 C45.792093,46.4809302 45.1627907,47.11 45.1627907,47.8862791 Z M14.5513953,47.8862791 C14.5513953,48.6625581 15.1809302,49.292093 15.9569767,49.292093 C16.7332558,49.292093 17.3625581,48.6625581 17.3625581,47.8862791 C17.3625581,47.11 16.7332558,46.4809302 15.9569767,46.4809302 C15.1809302,46.4809302 14.5513953,47.11 14.5513953,47.8862791 Z M37.9783721,47.8862791 C37.9783721,48.4039535 38.3981395,48.8234884 38.9155814,48.8234884 C39.4330233,48.8234884 39.8527907,48.4039535 39.8527907,47.8862791 C39.8527907,47.3688372 39.4330233,46.9493023 38.9155814,46.9493023 C38.3981395,46.9493023 37.9783721,47.3688372 37.9783721,47.8862791 Z M7.3672093,47.8862791 C7.3672093,48.4039535 7.78651163,48.8234884 8.30418605,48.8234884 C8.82162791,48.8234884 9.24116279,48.4039535 9.24116279,47.8862791 C9.24116279,47.3688372 8.82162791,46.9493023 8.30418605,46.9493023 C7.78651163,46.9493023 7.3672093,47.3688372 7.3672093,47.8862791 Z M30.794186,47.8862791 C30.794186,48.1453488 31.0039535,48.3548837 31.2627907,48.3548837 C31.5213953,48.3548837 31.7311628,48.1453488 31.7311628,47.8862791 C31.7311628,47.6276744 31.5213953,47.417907 31.2627907,47.417907 C31.0039535,47.417907 30.794186,47.6276744 30.794186,47.8862791 Z M0.18255814,47.8862791 C0.18255814,47.6276744 0.39255814,47.417907 0.651395349,47.417907 C0.91,47.417907 1.12,47.6276744 1.12,47.8862791 C1.12,48.1453488 0.91,48.3548837 0.651395349,48.3548837 C0.39255814,48.3548837 0.18255814,48.1453488 0.18255814,47.8862791 Z" id="path-1"></path>
        <linearGradient x1="0%" y1="0%" x2="0%" y2="0%" id="linearGradient-3"></linearGradient>
    </defs>
    <g id="Design-3" stroke="none" stroke-width="1" fill="none" fill-rule="evenodd">
        <g id="Landing-Copy-2" transform="translate(-120.000000, -15.000000)">
            <g id="logo-bigzeta" transform="translate(120.000000, 15.000000)">
                <g id="Group-3" transform="translate(0.000000, 0.151502)">
                    <mask id="mask-2" fill="white">
                        <use xlink:href="#path-1"></use>
                    </mask>
                    <use id="Clip-2" fill="#DC133C" xlink:href="#path-1"></use>
                    <path d="M21.735814,1.96906977 C21.735814,3.0044186 22.5748837,3.84348837 23.6097674,3.84348837 L23.6097674,3.84348837 C24.6448837,3.84348837 25.4839535,3.0044186 25.4839535,1.96906977 L25.4839535,1.96906977 C25.4839535,0.934186047 24.6448837,0.0951162791 23.6097674,0.0951162791 L23.6097674,0.0951162791 C22.5748837,0.0951162791 21.735814,0.934186047 21.735814,1.96906977 M45.1627907,1.96906977 C45.1627907,2.74534884 45.792093,3.37488372 46.5683721,3.37488372 L46.5683721,3.37488372 C47.3446512,3.37488372 47.974186,2.74534884 47.974186,1.96906977 L47.974186,1.96906977 C47.974186,1.1927907 47.3446512,0.563488372 46.5683721,0.563488372 L46.5683721,0.563488372 C45.792093,0.563488372 45.1627907,1.1927907 45.1627907,1.96906977 M14.5513953,1.96906977 C14.5513953,2.74534884 15.1809302,3.37488372 15.9569767,3.37488372 L15.9569767,3.37488372 C16.7332558,3.37488372 17.3625581,2.74534884 17.3625581,1.96906977 L17.3625581,1.96906977 C17.3625581,1.1927907 16.7332558,0.563488372 15.9569767,0.563488372 L15.9569767,0.563488372 C15.1809302,0.563488372 14.5513953,1.1927907 14.5513953,1.96906977 M37.9783721,1.96906977 C37.9783721,2.48674419 38.3981395,2.90627907 38.9155814,2.90627907 L38.9155814,2.90627907 C39.4330233,2.90627907 39.8527907,2.48674419 39.8527907,1.96906977 L39.8527907,1.96906977 C39.8527907,1.45162791 39.4330233,1.03209302 38.9155814,1.03209302 L38.9155814,1.03209302 C38.3981395,1.03209302 37.9783721,1.45162791 37.9783721,1.96906977 M7.3672093,1.96906977 C7.3672093,2.48674419 7.78651163,2.90627907 8.30418605,2.90627907 L8.30418605,2.90627907 C8.82162791,2.90627907 9.24116279,2.48674419 9.24116279,1.96906977 L9.24116279,1.96906977 C9.24116279,1.45162791 8.82162791,1.03209302 8.30418605,1.03209302 L8.30418605,1.03209302 C7.78651163,1.03209302 7.3672093,1.45162791 7.3672093,1.96906977 M30.794186,1.96906977 C30.794186,2.22790698 31.0039535,2.43767442 31.2627907,2.43767442 L31.2627907,2.43767442 C31.5213953,2.43767442 31.7311628,2.22790698 31.7311628,1.96906977 L31.7311628,1.96906977 C31.7311628,1.71046512 31.5213953,1.50069767 31.2627907,1.50069767 L31.2627907,1.50069767 C31.0039535,1.50069767 30.794186,1.71046512 30.794186,1.96906977 M0.18255814,1.96906977 C0.18255814,2.22790698 0.39255814,2.43767442 0.651395349,2.43767442 L0.651395349,2.43767442 C0.91,2.43767442 1.12,2.22790698 1.12,1.96906977 L1.12,1.96906977 C1.12,1.71046512 0.91,1.50069767 0.651395349,1.50069767 L0.651395349,1.50069767 C0.39255814,1.50069767 0.18255814,1.71046512 0.18255814,1.96906977 M44.225814,9.62209302 C44.225814,10.9160465 45.2746512,11.9648837 46.5683721,11.9648837 L46.5683721,11.9648837 C47.2069767,11.9648837 47.785814,11.7095349 48.2083721,11.2953488 L48.2083721,11.2953488 L48.2083721,7.94883721 C47.785814,7.53465116 47.2069767,7.27930233 46.5683721,7.27930233 L46.5683721,7.27930233 C45.2746512,7.27930233 44.225814,8.32813953 44.225814,9.62209302 M37.0413953,9.62209302 C37.0413953,10.6572093 37.8804651,11.4962791 38.9155814,11.4962791 L38.9155814,11.4962791 C39.9506977,11.4962791 40.7897674,10.6572093 40.7897674,9.62209302 L40.7897674,9.62209302 C40.7897674,8.58697674 39.9506977,7.74790698 38.9155814,7.74790698 L38.9155814,7.74790698 C37.8804651,7.74790698 37.0413953,8.58697674 37.0413953,9.62209302 M29.8572093,9.62209302 C29.8572093,10.3983721 30.4865116,11.0276744 31.2627907,11.0276744 L31.2627907,11.0276744 C32.0390698,11.0276744 32.6683721,10.3983721 32.6683721,9.62209302 L32.6683721,9.62209302 C32.6683721,8.84581395 32.0390698,8.21651163 31.2627907,8.21651163 L31.2627907,8.21651163 C30.4865116,8.21651163 29.8572093,8.84581395 29.8572093,9.62209302 M22.6727907,9.62209302 C22.6727907,10.1397674 23.0925581,10.5590698 23.6097674,10.5590698 L23.6097674,10.5590698 C24.1274419,10.5590698 24.5469767,10.1397674 24.5469767,9.62209302 L24.5469767,9.62209302 C24.5469767,9.1044186 24.1274419,8.68511628 23.6097674,8.68511628 L23.6097674,8.68511628 C23.0925581,8.68511628 22.6727907,9.1044186 22.6727907,9.62209302 M15.4886047,9.62209302 C15.4886047,9.88069767 15.6981395,10.0904651 15.9569767,10.0904651 L15.9569767,10.0904651 C16.215814,10.0904651 16.4255814,9.88069767 16.4255814,9.62209302 L16.4255814,9.62209302 C16.4255814,9.36348837 16.215814,9.15348837 15.9569767,9.15348837 L15.9569767,9.15348837 C15.6981395,9.15348837 15.4886047,9.36348837 15.4886047,9.62209302 M7.8355814,9.62209302 C7.8355814,9.88069767 8.04534884,10.0904651 8.30418605,10.0904651 L8.30418605,10.0904651 C8.5627907,10.0904651 8.77255814,9.88069767 8.77255814,9.62209302 L8.77255814,9.62209302 C8.77255814,9.36348837 8.5627907,9.15348837 8.30418605,9.15348837 L8.30418605,9.15348837 C8.04534884,9.15348837 7.8355814,9.36348837 7.8355814,9.62209302 M0.18255814,9.62209302 C0.18255814,9.88069767 0.39255814,10.0904651 0.651395349,10.0904651 L0.651395349,10.0904651 C0.91,10.0904651 1.12,9.88069767 1.12,9.62209302 L1.12,9.62209302 C1.12,9.36348837 0.91,9.15348837 0.651395349,9.15348837 L0.651395349,9.15348837 C0.39255814,9.15348837 0.18255814,9.36348837 0.18255814,9.62209302 M43.2886047,17.2751163 C43.2886047,19.0862791 44.7572093,20.5548837 46.5683721,20.5548837 L46.5683721,20.5548837 C47.165814,20.5548837 47.725814,20.3951163 48.2083721,20.1160465 L48.2083721,20.1160465 L48.2083721,14.4337209 C47.725814,14.1546512 47.165814,13.9951163 46.5683721,13.9951163 L46.5683721,13.9951163 C44.7572093,13.9951163 43.2886047,15.4634884 43.2886047,17.2751163 M36.1044186,17.2751163 C36.1044186,18.8276744 37.3630233,20.0860465 38.9155814,20.0860465 L38.9155814,20.0860465 C40.4681395,20.0860465 41.7267442,18.8276744 41.7267442,17.2751163 L41.7267442,17.2751163 C41.7267442,15.722093 40.4681395,14.4637209 38.9155814,14.4637209 L38.9155814,14.4637209 C37.3630233,14.4637209 36.1044186,15.722093 36.1044186,17.2751163 M29.3886047,17.2751163 C29.3886047,18.31 30.2276744,19.1490698 31.2627907,19.1490698 L31.2627907,19.1490698 C32.2976744,19.1490698 33.1369767,18.31 33.1369767,17.2751163 L33.1369767,17.2751163 C33.1369767,16.2397674 32.2976744,15.4006977 31.2627907,15.4006977 L31.2627907,15.4006977 C30.2276744,15.4006977 29.3886047,16.2397674 29.3886047,17.2751163 M22.204186,17.2751163 C22.204186,18.0513953 22.8334884,18.6804651 23.6097674,18.6804651 L23.6097674,18.6804651 C24.3862791,18.6804651 25.0155814,18.0513953 25.0155814,17.2751163 L25.0155814,17.2751163 C25.0155814,16.4988372 24.3862791,15.8693023 23.6097674,15.8693023 L23.6097674,15.8693023 C22.8334884,15.8693023 22.204186,16.4988372 22.204186,17.2751163 M15.0197674,17.2751163 C15.0197674,17.7923256 15.4395349,18.212093 15.9569767,18.212093 L15.9569767,18.212093 C16.4744186,18.212093 16.8939535,17.7923256 16.8939535,17.2751163 L16.8939535,17.2751163 C16.8939535,16.7574419 16.4744186,16.3376744 15.9569767,16.3376744 L15.9569767,16.3376744 C15.4395349,16.3376744 15.0197674,16.7574419 15.0197674,17.2751163 M7.8355814,17.2751163 C7.8355814,17.5337209 8.04534884,17.7434884 8.30418605,17.7434884 L8.30418605,17.7434884 C8.5627907,17.7434884 8.77255814,17.5337209 8.77255814,17.2751163 L8.77255814,17.2751163 C8.77255814,17.0160465 8.5627907,16.8065116 8.30418605,16.8065116 L8.30418605,16.8065116 C8.04534884,16.8065116 7.8355814,17.0160465 7.8355814,17.2751163 M0.18255814,17.2751163 C0.18255814,17.5337209 0.39255814,17.7434884 0.651395349,17.7434884 L0.651395349,17.7434884 C0.91,17.7434884 1.12,17.5337209 1.12,17.2751163 L1.12,17.2751163 C1.12,17.0160465 0.91,16.8065116 0.651395349,16.8065116 L0.651395349,16.8065116 C0.39255814,16.8065116 0.18255814,17.0160465 0.18255814,17.2751163 M42.82,24.9276744 C42.82,26.997907 44.4983721,28.6760465 46.5683721,28.6760465 L46.5683721,28.6760465 C47.1565116,28.6760465 47.7127907,28.5406977 48.2083721,28.2993023 L48.2083721,28.2993023 L48.2083721,21.5562791 C47.7127907,21.3148837 47.1565116,21.1795349 46.5683721,21.1795349 L46.5683721,21.1795349 C44.4983721,21.1795349 42.82,22.8574419 42.82,24.9276744 M35.635814,24.9276744 C35.635814,26.7393023 37.104186,28.2074419 38.9155814,28.2074419 L38.9155814,28.2074419 C40.7269767,28.2074419 42.1955814,26.7393023 42.1955814,24.9276744 L42.1955814,24.9276744 C42.1955814,23.1165116 40.7269767,21.647907 38.9155814,21.647907 L38.9155814,21.647907 C37.104186,21.647907 35.635814,23.1165116 35.635814,24.9276744 M28.4513953,24.9276744 C28.4513953,26.4802326 29.7102326,27.7390698 31.2627907,27.7390698 L31.2627907,27.7390698 C32.8153488,27.7390698 34.0739535,26.4802326 34.0739535,24.9276744 L34.0739535,24.9276744 C34.0739535,23.3751163 32.8153488,22.1165116 31.2627907,22.1165116 L31.2627907,22.1165116 C29.7102326,22.1165116 28.4513953,23.3751163 28.4513953,24.9276744 M21.735814,24.9276744 C21.735814,25.9630233 22.5748837,26.802093 23.6097674,26.802093 L23.6097674,26.802093 C24.6448837,26.802093 25.4839535,25.9630233 25.4839535,24.9276744 L25.4839535,24.9276744 C25.4839535,23.8927907 24.6448837,23.0537209 23.6097674,23.0537209 L23.6097674,23.0537209 C22.5748837,23.0537209 21.735814,23.8927907 21.735814,24.9276744 M14.5513953,24.9276744 C14.5513953,25.7039535 15.1809302,26.3334884 15.9569767,26.3334884 L15.9569767,26.3334884 C16.7332558,26.3334884 17.3625581,25.7039535 17.3625581,24.9276744 L17.3625581,24.9276744 C17.3625581,24.1513953 16.7332558,23.5223256 15.9569767,23.5223256 L15.9569767,23.5223256 C15.1809302,23.5223256 14.5513953,24.1513953 14.5513953,24.9276744 M7.3672093,24.9276744 C7.3672093,25.4453488 7.78651163,25.8648837 8.30418605,25.8648837 L8.30418605,25.8648837 C8.82162791,25.8648837 9.24116279,25.4453488 9.24116279,24.9276744 L9.24116279,24.9276744 C9.24116279,24.4102326 8.82162791,23.9906977 8.30418605,23.9906977 L8.30418605,23.9906977 C7.78651163,23.9906977 7.3672093,24.4102326 7.3672093,24.9276744 M0.18255814,24.9276744 C0.18255814,25.1867442 0.39255814,25.3962791 0.651395349,25.3962791 L0.651395349,25.3962791 C0.91,25.3962791 1.12,25.1867442 1.12,24.9276744 L1.12,24.9276744 C1.12,24.6690698 0.91,24.4593023 0.651395349,24.4593023 L0.651395349,24.4593023 C0.39255814,24.4593023 0.18255814,24.6690698 0.18255814,24.9276744 M43.2886047,32.5806977 C43.2886047,34.3918605 44.7572093,35.8604651 46.5683721,35.8604651 L46.5683721,35.8604651 C47.165814,35.8604651 47.725814,35.7006977 48.2083721,35.4216279 L48.2083721,35.4216279 L48.2083721,29.7395349 C47.725814,29.4606977 47.165814,29.3009302 46.5683721,29.3009302 L46.5683721,29.3009302 C44.7572093,29.3009302 43.2886047,30.7693023 43.2886047,32.5806977 M36.1044186,32.5806977 C36.1044186,34.1332558 37.3630233,35.3918605 38.9155814,35.3918605 L38.9155814,35.3918605 C40.4681395,35.3918605 41.7267442,34.1332558 41.7267442,32.5806977 L41.7267442,32.5806977 C41.7267442,31.0281395 40.4681395,29.7693023 38.9155814,29.7693023 L38.9155814,29.7693023 C37.3630233,29.7693023 36.1044186,31.0281395 36.1044186,32.5806977 M29.3886047,32.5806977 C29.3886047,33.6155814 30.2276744,34.4548837 31.2627907,34.4548837 L31.2627907,34.4548837 C32.2976744,34.4548837 33.1369767,33.6155814 33.1369767,32.5806977 L33.1369767,32.5806977 C33.1369767,31.5455814 32.2976744,30.7062791 31.2627907,30.7062791 L31.2627907,30.7062791 C30.2276744,30.7062791 29.3886047,31.5455814 29.3886047,32.5806977 M22.204186,32.5806977 C22.204186,33.3569767 22.8334884,33.9862791 23.6097674,33.9862791 L23.6097674,33.9862791 C24.3862791,33.9862791 25.0155814,33.3569767 25.0155814,32.5806977 L25.0155814,32.5806977 C25.0155814,31.8044186 24.3862791,31.1751163 23.6097674,31.1751163 L23.6097674,31.1751163 C22.8334884,31.1751163 22.204186,31.8044186 22.204186,32.5806977 M15.0197674,32.5806977 C15.0197674,33.0983721 15.4395349,33.5176744 15.9569767,33.5176744 L15.9569767,33.5176744 C16.4744186,33.5176744 16.8939535,33.0983721 16.8939535,32.5806977 L16.8939535,32.5806977 C16.8939535,32.0630233 16.4744186,31.6437209 15.9569767,31.6437209 L15.9569767,31.6437209 C15.4395349,31.6437209 15.0197674,32.0630233 15.0197674,32.5806977 M7.8355814,32.5806977 C7.8355814,32.8393023 8.04534884,33.0490698 8.30418605,33.0490698 L8.30418605,33.0490698 C8.5627907,33.0490698 8.77255814,32.8393023 8.77255814,32.5806977 L8.77255814,32.5806977 C8.77255814,32.3218605 8.5627907,32.112093 8.30418605,32.112093 L8.30418605,32.112093 C8.04534884,32.112093 7.8355814,32.3218605 7.8355814,32.5806977 M0.18255814,32.5806977 C0.18255814,32.8393023 0.39255814,33.0490698 0.651395349,33.0490698 L0.651395349,33.0490698 C0.91,33.0490698 1.12,32.8393023 1.12,32.5806977 L1.12,32.5806977 C1.12,32.3218605 0.91,32.112093 0.651395349,32.112093 L0.651395349,32.112093 C0.39255814,32.112093 0.18255814,32.3218605 0.18255814,32.5806977 M44.225814,40.2337209 C44.225814,41.5272093 45.2746512,42.5762791 46.5683721,42.5762791 L46.5683721,42.5762791 C47.2069767,42.5762791 47.785814,42.3206977 48.2083721,41.9065116 L48.2083721,41.9065116 L48.2083721,38.5604651 C47.785814,38.1462791 47.2069767,37.8909302 46.5683721,37.8909302 L46.5683721,37.8909302 C45.2746512,37.8909302 44.225814,38.9397674 44.225814,40.2337209 M37.0413953,40.2337209 C37.0413953,41.2686047 37.8804651,42.1076744 38.9155814,42.1076744 L38.9155814,42.1076744 C39.9506977,42.1076744 40.7897674,41.2686047 40.7897674,40.2337209 L40.7897674,40.2337209 C40.7897674,39.1983721 39.9506977,38.3593023 38.9155814,38.3593023 L38.9155814,38.3593023 C37.8804651,38.3593023 37.0413953,39.1983721 37.0413953,40.2337209 M29.8572093,40.2337209 C29.8572093,41.01 30.4865116,41.6390698 31.2627907,41.6390698 L31.2627907,41.6390698 C32.0390698,41.6390698 32.6683721,41.01 32.6683721,40.2337209 L32.6683721,40.2337209 C32.6683721,39.4572093 32.0390698,38.827907 31.2627907,38.827907 L31.2627907,38.827907 C30.4865116,38.827907 29.8572093,39.4572093 29.8572093,40.2337209 M22.6727907,40.2337209 C22.6727907,40.7509302 23.0925581,41.1706977 23.6097674,41.1706977 L23.6097674,41.1706977 C24.1274419,41.1706977 24.5469767,40.7509302 24.5469767,40.2337209 L24.5469767,40.2337209 C24.5469767,39.7160465 24.1274419,39.2962791 23.6097674,39.2962791 L23.6097674,39.2962791 C23.0925581,39.2962791 22.6727907,39.7160465 22.6727907,40.2337209 M15.4886047,40.2337209 C15.4886047,40.4923256 15.6981395,40.702093 15.9569767,40.702093 L15.9569767,40.702093 C16.215814,40.702093 16.4255814,40.4923256 16.4255814,40.2337209 L16.4255814,40.2337209 C16.4255814,39.9746512 16.215814,39.7648837 15.9569767,39.7648837 L15.9569767,39.7648837 C15.6981395,39.7648837 15.4886047,39.9746512 15.4886047,40.2337209 M7.8355814,40.2337209 C7.8355814,40.4923256 8.04534884,40.702093 8.30418605,40.702093 L8.30418605,40.702093 C8.5627907,40.702093 8.77255814,40.4923256 8.77255814,40.2337209 L8.77255814,40.2337209 C8.77255814,39.9746512 8.5627907,39.7648837 8.30418605,39.7648837 L8.30418605,39.7648837 C8.04534884,39.7648837 7.8355814,39.9746512 7.8355814,40.2337209 M0.18255814,40.2337209 C0.18255814,40.4923256 0.39255814,40.702093 0.651395349,40.702093 L0.651395349,40.702093 C0.91,40.702093 1.12,40.4923256 1.12,40.2337209 L1.12,40.2337209 C1.12,39.9746512 0.91,39.7648837 0.651395349,39.7648837 L0.651395349,39.7648837 C0.39255814,39.7648837 0.18255814,39.9746512 0.18255814,40.2337209 M21.735814,47.8862791 C21.735814,48.9216279 22.5748837,49.7606977 23.6097674,49.7606977 L23.6097674,49.7606977 C24.6448837,49.7606977 25.4839535,48.9216279 25.4839535,47.8862791 L25.4839535,47.8862791 C25.4839535,46.8513953 24.6448837,46.0123256 23.6097674,46.0123256 L23.6097674,46.0123256 C22.5748837,46.0123256 21.735814,46.8513953 21.735814,47.8862791 M45.1627907,47.8862791 C45.1627907,48.6625581 45.792093,49.292093 46.5683721,49.292093 L46.5683721,49.292093 C47.3446512,49.292093 47.974186,48.6625581 47.974186,47.8862791 L47.974186,47.8862791 C47.974186,47.11 47.3446512,46.4809302 46.5683721,46.4809302 L46.5683721,46.4809302 C45.792093,46.4809302 45.1627907,47.11 45.1627907,47.8862791 M14.5513953,47.8862791 C14.5513953,48.6625581 15.1809302,49.292093 15.9569767,49.292093 L15.9569767,49.292093 C16.7332558,49.292093 17.3625581,48.6625581 17.3625581,47.8862791 L17.3625581,47.8862791 C17.3625581,47.11 16.7332558,46.4809302 15.9569767,46.4809302 L15.9569767,46.4809302 C15.1809302,46.4809302 14.5513953,47.11 14.5513953,47.8862791 M37.9783721,47.8862791 C37.9783721,48.4039535 38.3981395,48.8234884 38.9155814,48.8234884 L38.9155814,48.8234884 C39.4330233,48.8234884 39.8527907,48.4039535 39.8527907,47.8862791 L39.8527907,47.8862791 C39.8527907,47.3688372 39.4330233,46.9493023 38.9155814,46.9493023 L38.9155814,46.9493023 C38.3981395,46.9493023 37.9783721,47.3688372 37.9783721,47.8862791 M7.3672093,47.8862791 C7.3672093,48.4039535 7.78651163,48.8234884 8.30418605,48.8234884 L8.30418605,48.8234884 C8.82162791,48.8234884 9.24116279,48.4039535 9.24116279,47.8862791 L9.24116279,47.8862791 C9.24116279,47.3688372 8.82162791,46.9493023 8.30418605,46.9493023 L8.30418605,46.9493023 C7.78651163,46.9493023 7.3672093,47.3688372 7.3672093,47.8862791 M30.794186,47.8862791 C30.794186,48.1453488 31.0039535,48.3548837 31.2627907,48.3548837 L31.2627907,48.3548837 C31.5213953,48.3548837 31.7311628,48.1453488 31.7311628,47.8862791 L31.7311628,47.8862791 C31.7311628,47.6276744 31.5213953,47.417907 31.2627907,47.417907 L31.2627907,47.417907 C31.0039535,47.417907 30.794186,47.6276744 30.794186,47.8862791 M0.18255814,47.8862791 C0.18255814,48.1453488 0.39255814,48.3548837 0.651395349,48.3548837 L0.651395349,48.3548837 C0.91,48.3548837 1.12,48.1453488 1.12,47.8862791 L1.12,47.8862791 C1.12,47.6276744 0.91,47.417907 0.651395349,47.417907 L0.651395349,47.417907 C0.39255814,47.417907 0.18255814,47.6276744 0.18255814,47.8862791" id="Fill-1" mask="url(#mask-2)"></path>
                </g>
                <polygon id="Fill-4" fill="#00499C" points="73.8887209 49.912107 51.7224419 49.912107 51.7224419 49.762107 60.7687209 33.0572233 52.135 33.0572233 52.135 26.8637349 71.6559302 26.8637349 71.6559302 27.0137349 62.8343023 43.6809442 73.8887209 43.6809442"></polygon>
                <polygon id="Fill-5" fill="#00499C" points="88.3132326 26.8636652 88.3132326 26.8636652 73.8234651 26.8636652 73.8234651 49.9120373 91.1664884 49.9120373 91.1664884 43.6808745 80.993 43.6808745 80.993 41.2406419 90.3025349 41.2406419 90.3025349 35.2338977 80.993 35.2338977 80.993 33.0571535 92.3395116 33.0571535 95.107186 33.0571535 95.107186 49.9120373 102.389977 49.9120373 102.389977 33.0571535 108.875093 33.0571535 111.215326 26.8636652"></polygon>
                <path d="M113.452256,26.8637582 L104.742953,49.9121303 L111.874814,49.9121303 L113.076442,46.5712 L121.184349,46.5712 L122.386209,49.9121303 L129.743651,49.9121303 L121.034349,26.8637582 L113.452256,26.8637582 Z M117.13086,35.3839907 L119.045512,40.6767814 L115.216674,40.6767814 L117.13086,35.3839907 Z" id="Fill-6" fill="#00499C"></path>
                <polygon id="Fill-7" fill="#00499C" points="72.3293023 23.670107 79.6123256 23.670107 79.6123256 0.621734929 72.3293023 0.621734929"></polygon>
                <g id="Group-12" transform="translate(51.627907, 0.151502)" fill="#00499C">
                    <path d="M6.96395349,17.6253721 L10.4925581,17.6253721 C11.6565116,17.6253721 12.3325581,16.9872326 12.3325581,16.0860698 C12.3325581,15.1100233 11.6565116,14.5097907 10.4925581,14.5097907 L6.96395349,14.5097907 L6.96395349,17.6253721 Z M10.0046512,9.29188372 C11.2062791,9.29188372 11.8823256,8.76606977 11.8823256,7.7897907 C11.8823256,6.81444186 11.2062791,6.32630233 10.0046512,6.32630233 L6.96395349,6.32630233 L6.96395349,9.29188372 L10.0046512,9.29188372 Z M19.2774419,17.1372326 C19.2774419,21.229093 16.4993023,23.5186279 11.6944186,23.5186279 L0.0946511628,23.5186279 L0.0946511628,0.470255814 L11.0562791,0.470255814 C15.8611628,0.470255814 18.6381395,2.6097907 18.6381395,6.73932558 C18.6381395,9.21676744 17.2118605,11.0183953 15.5232558,11.6193256 C17.7,12.3323488 19.2774419,14.4718837 19.2774419,17.1372326 L19.2774419,17.1372326 Z" id="Fill-8"></path>
                    <path d="M43.7917674,16.9872558 L43.7917674,15.9733023 L43.7929302,16.906093 L43.7929302,11.2177209 L50.0975814,11.2177209 L50.0975814,21.0412093 C47.7329302,22.9933023 44.8045581,23.8937674 41.4638605,23.8937674 C34.0685116,23.8937674 29.3771163,19.014 29.3771163,12.1072558 C29.3771163,4.78702326 34.4064186,0.0949302326 42.1396744,0.0949302326 C44.6545581,0.0949302326 47.2068837,0.770511628 48.9345581,1.78376744 L48.9345581,8.69097674 C47.2826977,7.67748837 45.1424651,6.85167442 42.1396744,6.85167442 C38.9489767,6.85167442 36.6589767,8.69097674 36.6589767,12.1072558 C36.6589767,15.4102791 38.8368837,17.3995814 41.7273488,17.3995814 C42.589907,17.3995814 43.3036279,17.2495814 43.7917674,16.9872558" id="Fill-10"></path>
                </g>
            </g>
        </g>
    </g>
</svg>