<?xml version="1.0" encoding="UTF-8"?>
<svg width="124px" height="49px" viewBox="0 0 124 49" version="1.1" xmlns="http://www.w3.org/2000/svg" xmlns:xlink="http://www.w3.org/1999/xlink">
    <!-- Generator: sketchtool 49.2 (51160) - http://www.bohemiancoding.com/sketch -->
    <title>CD8FFB5B-D33A-4EED-82C9-9B3648D32AE3</title>
    <desc>Created with sketchtool.</desc>
    <defs></defs>
    <g id="Demo-Landing" stroke="none" stroke-width="1" fill="none" fill-rule="evenodd">
        <g transform="translate(-149.000000, -40.000000)" id="logo-datapages-copy">
            <g transform="translate(149.000000, 40.000000)">
                <polygon id="Shape" fill="#DC143C" fill-rule="nonzero" points="21.877092 0.401660195 21.539028 0 13.9827956 0 13.6464051 0.282835721 11.3619628 13.2380506 19.8855268 11.6899853"></polygon>
                <polygon id="Shape" fill="#AA052D" fill-rule="nonzero" points="18.0546258 20.8796358 18.3307672 20.6018209 19.8855268 11.6899853 11.3619628 13.2380506 1.20832775 15.0840139 9.93774267 22.3423484"></polygon>
                <polygon id="Shape" fill="#DC143C" fill-rule="nonzero" points="16.7107377 27.9722854 9.93774267 22.3423484 1.20832775 15.0840139 0.920471281 15.3785647 0 24.2284777 0.118824474 24.5247021 14.7459499 36.932655 15.3032534 36.7318249 16.826215 28.2952872"></polygon>
                <polygon id="Shape" fill="#0A71E9" fill-rule="nonzero" points="16.2019681 48.2193065 16.5400321 48.6209667 24.0962646 48.6209667 24.432655 48.3381309 26.7170973 35.3829161 18.1918597 36.932655"></polygon>
                <path d="M42.674026,41.0025974 C44.2649351,41.0025974 45.4012987,41.9298701 45.4012987,43.7844156 C45.4012987,45.5935065 44.4376623,47.4025974 41.974026,47.4025974 L39.9376623,47.4025974 L40.8376623,41.0025974 L42.674026,41.0025974 Z M41.974026,46.9116883 C44.0376623,46.9116883 44.8194805,45.3480519 44.8194805,43.7844156 C44.8194805,42.1844156 43.9194805,41.5207792 42.6285714,41.5207792 L41.3194805,41.5207792 L40.5649351,46.9116883 L41.974026,46.9116883 Z M51.2597403,41.5207792 L48.0597403,41.5207792 L47.7324675,43.838961 L50.587013,43.838961 L50.4688312,44.3207792 L47.6688312,44.3207792 L47.3051948,46.8844156 L50.7415584,46.8844156 L50.6142857,47.4025974 L46.6779221,47.4025974 L47.5779221,41.0025974 L51.387013,41.0025974 L51.2597403,41.5207792 Z M58.2,41.0025974 L58.8818182,41.0025974 L58.7181818,47.4025974 L58.2090909,47.4025974 L58.3454545,41.8116883 L55.6181818,47.4025974 L55.2181818,47.4025974 L53.8909091,41.7935065 L52.5909091,47.4025974 L52.0818182,47.4025974 L53.5545455,41.0025974 L54.2272727,41.0025974 L55.5363636,46.5207792 L58.2,41.0025974 Z M63.2584416,47.5480519 C61.6766234,47.5480519 60.6584416,46.4662338 60.6584416,44.838961 C60.6584416,42.7935065 61.6766234,40.8571429 63.8493506,40.8571429 C65.4311688,40.8571429 66.4493506,41.938961 66.4493506,43.5662338 C66.4493506,45.6116883 65.4402597,47.5480519 63.2584416,47.5480519 Z M63.2584416,47.0298701 C65.1220779,47.0298701 65.8766234,45.2571429 65.8766234,43.5480519 C65.8766234,42.2753247 65.1311688,41.3753247 63.8493506,41.3753247 C61.9857143,41.3753247 61.2311688,43.1480519 61.2311688,44.8571429 C61.2311688,46.1298701 61.9766234,47.0298701 63.2584416,47.0298701 Z" id="Demo" fill="#010101"></path>
                <polygon id="Shape" fill="#242062" fill-rule="nonzero" points="20.0244343 27.7413308 19.7482929 28.0191458 18.1918597 36.932655 18.1918597 36.932655 26.7170973 35.3829161 36.8707324 33.5369527 28.1396439 26.2786183"></polygon>
                <polygon id="Shape" fill="#0A71E9" fill-rule="nonzero" points="37.9602356 24.0962646 23.3331102 11.6899853 22.7758067 11.8891418 21.2528451 20.3256795 21.3683224 20.6486812 28.1396439 26.2786183 36.8707324 33.5369527 37.1585888 33.2424019 38.0790601 24.392489"></polygon>
                <path d="M52.6760611,28.9647208 C52.2810952,32.7252644 49.9615076,35.3477708 46.0202169,35.3477708 L40.8672513,35.3477708 L42.2061186,22.6168162 L47.2703843,22.6168162 C51.2468202,22.6168162 53.0793948,25.1305396 52.6760611,28.9647208 Z M49.830968,28.9647208 C50.1020886,26.3790333 49.1397777,24.8778284 46.6511581,24.8778284 L44.7164948,24.8778284 L43.8479047,33.105168 L45.8562057,33.105168 C48.3665819,33.105168 49.5749096,31.463382 49.8376623,28.9647208 L49.830968,28.9647208 Z" id="Shape" fill="#000000" fill-rule="nonzero"></path>
                <path d="M58.2273397,35.3477708 L58.1704378,34.3352524 C57.4067427,35.1556837 56.3357513,35.6208312 55.2148882,35.6188914 C53.3153702,35.6188914 52.2342348,34.5511447 52.4049404,32.9244209 C52.5589102,31.4600348 53.3890079,30.4475164 55.907752,29.8868657 L57.5545588,29.5253715 C58.294283,29.3580131 58.5486678,29.1806132 58.6005489,28.6885795 C58.6557772,28.163074 58.3244076,27.873544 57.1311421,27.873544 C55.8515833,27.8724932 54.5857838,28.1375075 53.4141117,28.6517606 L53.8358549,26.5363502 C55.0430489,26.0483127 56.3344956,25.8026478 57.6365645,25.8133619 C60.511782,25.8133619 61.485808,26.9162538 61.2648949,28.9781095 L60.8431517,32.9947115 C60.7704706,33.776321 60.7542506,34.5621543 60.7946178,35.3460972 L58.2273397,35.3477708 Z M58.2775472,32.7972285 L58.4867452,30.8090106 C58.2035148,30.9341552 57.9086597,31.0311322 57.60644,31.0985406 L56.6792743,31.314433 C55.5830767,31.5855536 55.0056902,31.8934931 54.9320525,32.6348909 C54.8584148,33.3762887 55.3638372,33.6842281 56.1587897,33.6842281 C56.9560369,33.6928629 57.7219181,33.3740482 58.2775472,32.8022493 L58.2775472,32.7972285 Z" id="Shape" fill="#000000" fill-rule="nonzero"></path>
                <path d="M65.6948721,33.4482528 C66.2410724,33.4597778 66.7845163,33.3677842 67.2964922,33.1771321 L66.8814433,35.2389878 C66.2544324,35.451578 65.5971309,35.5612225 64.9350649,35.5636631 C62.7594055,35.5636631 61.5795287,34.4607712 61.8071362,32.2918061 L62.6790735,24.0092382 L65.393627,23.6293346 L65.135895,26.0895033 L68.0830767,26.0895033 L67.7031731,27.9873477 L64.9350649,27.9873477 L64.5149953,31.9838666 C64.4011916,33.0332039 64.8631008,33.4482528 65.6948721,33.4482528 Z" id="Shape" fill="#000000" fill-rule="nonzero"></path>
                <path d="M73.6159459,35.3477708 L73.559044,34.3352524 C72.7953489,35.1556837 71.7243575,35.6208312 70.6034944,35.6188914 C68.7039764,35.6188914 67.6228411,34.5511447 67.7935467,32.9244209 C67.9475164,31.463382 68.7843085,30.4475164 71.2946847,29.8868657 L72.9414915,29.5253715 C73.6828893,29.3580131 73.9356005,29.1806132 73.9874816,28.6885795 C74.0427099,28.163074 73.7113402,27.873544 72.5180747,27.873544 C71.2385159,27.8724932 69.9727164,28.1375075 68.8010443,28.6517606 L69.2227875,26.5363502 C70.4300311,26.0484809 71.721444,25.8028224 73.0234971,25.8133619 C75.8987147,25.8133619 76.8727407,26.9162538 76.6518276,28.9781095 L76.2300843,32.9947115 C76.1582269,33.7763675 76.1420081,34.5621419 76.1815504,35.3460972 L73.6159459,35.3477708 Z M73.6661534,32.7972285 L73.8753515,30.8090106 C73.592121,30.9341552 73.2972659,31.0311322 72.9950462,31.0985406 L72.0678806,31.314433 C70.9733565,31.5855536 70.3942964,31.8934931 70.3206587,32.6348909 C70.247021,33.3762887 70.7524434,33.6842281 71.5473959,33.6842281 C72.3446431,33.6928629 73.1105243,33.3740482 73.6661534,32.8022493 L73.6661534,32.7972285 Z" id="Shape" fill="#000000" fill-rule="nonzero"></path>
                <path d="M88.0656714,26.7221181 C87.797898,29.2709867 85.8548668,30.7939483 83.0097737,30.7939483 L80.549605,30.7939483 L80.07096,35.351118 L77.3195876,35.351118 L78.6584549,22.6201633 L83.8130941,22.6201633 C86.7619494,22.6168162 88.3384657,24.1364306 88.0656714,26.7221181 Z M85.371201,26.7221181 C85.4983934,25.5104432 84.8138974,24.8058642 83.3846566,24.8058642 L81.1788727,24.8058642 L80.7721917,28.6751908 L83.0516133,28.6751908 C84.4256259,28.6751908 85.2440086,27.933793 85.371201,26.7221181 Z" id="Shape" fill="#000000" fill-rule="nonzero"></path>
                <path d="M93.0730352,35.3477708 L93.0161334,34.3352524 C92.2524382,35.1556837 91.1814468,35.6208312 90.0605837,35.6188914 C88.1627393,35.6188914 87.0799304,34.5511447 87.2523095,32.9244209 C87.4062793,31.4600348 88.2347034,30.4475164 90.7534476,29.8868657 L92.4002544,29.5253715 C93.1416522,29.3580131 93.396037,29.1806132 93.4462445,28.6885795 C93.5014728,28.163074 93.1701031,27.873544 91.9768376,27.873544 C90.6978225,27.8725301 89.4325768,28.1375478 88.2614808,28.6517606 L88.6815504,26.5363502 C89.88934,26.0483492 91.1813259,25.8026899 92.4839336,25.8133619 C95.3591512,25.8133619 96.3331771,26.9162538 96.1105904,28.9781095 L95.6888472,32.9947115 C95.6169898,33.7763675 95.600771,34.5621419 95.6403133,35.3460972 L93.0730352,35.3477708 Z M93.1232427,32.7972285 L93.3324408,30.8090106 C93.0492103,30.9341552 92.7543552,31.0311322 92.4521355,31.0985406 L91.5249699,31.314433 C90.4304458,31.5855536 89.8513857,31.8934931 89.777748,32.6348909 C89.7041103,33.3762887 90.2095327,33.6842281 91.0061588,33.6842281 C91.8028652,33.6926 92.5681287,33.3737907 93.1232427,32.8022493 L93.1232427,32.7972285 Z" id="Shape" fill="#000000" fill-rule="nonzero"></path>
                <path d="M106.486812,26.0895033 L105.562994,34.8774936 C105.280158,37.5719641 103.219976,39.0363502 100.026777,39.0363502 C98.6711742,39.0363502 97.5013389,38.8020485 96.4837997,38.1677601 L96.9256259,36.1979515 C97.9049581,36.7270237 99.0042227,36.9944903 100.117151,36.9744946 C101.97985,36.9744946 102.709533,36.397108 102.855135,35.004686 L102.930446,34.2984335 C102.224673,34.9046775 101.321943,35.2325644 100.391619,35.2205784 C97.9331236,35.2205784 96.2729281,33.4666622 96.5825412,30.5194805 C96.877092,27.7162271 98.7950194,25.8183826 101.415852,25.8183826 C102.609118,25.8183826 103.365578,26.1982862 103.887736,26.9028652 L104.118691,26.0895033 L106.486812,26.0895033 Z M103.109519,32.5813362 L103.542978,28.4509305 C103.099478,28.0358816 102.523765,27.8367251 101.800777,27.8367251 C100.262753,27.8367251 99.4192663,28.9764359 99.2586022,30.5144598 C99.0979381,32.0524836 99.7723926,33.1921944 101.255188,33.1921944 C101.923815,33.1990568 102.575883,32.9842509 103.109519,32.5813362 Z" id="Shape" fill="#000000" fill-rule="nonzero"></path>
                <path d="M115.385259,31.5855536 L109.236511,31.5855536 C109.340273,33.0147945 110.192127,33.5034811 111.730151,33.5034811 C112.87321,33.5037773 113.997908,33.2159836 115.000335,32.666689 L114.555161,34.8423484 C113.460637,35.4398179 112.267372,35.620565 111.14607,35.620565 C107.798902,35.620565 106.346231,33.7946847 106.669233,30.7203106 C106.978846,27.7731289 108.757866,25.8200562 111.81383,25.8200562 C114.617084,25.8200562 115.877293,27.5923818 115.584416,30.3772259 C115.54927,30.718637 115.45555,31.2608783 115.385259,31.5855536 Z M109.377092,29.9119695 L113.134288,29.9119695 C113.221315,28.5546927 112.714219,27.8852591 111.51928,27.8852591 C110.259071,27.8785647 109.646539,28.5479984 109.377092,29.9052751 L109.377092,29.9119695 Z" id="Shape" fill="#000000" fill-rule="nonzero"></path>
                <path d="M121.030258,32.7620833 C121.08716,32.219842 120.72734,32.0206855 119.492235,31.7311554 L118.714018,31.563797 C116.873075,31.1838934 115.989423,30.2968938 116.158455,28.6885795 C116.345896,26.9162538 117.781832,25.8133619 120.439483,25.8133619 C121.975833,25.8133619 123.070357,26.0660731 123.95401,26.4995314 L123.543982,28.5078324 C122.560897,28.0623821 121.495319,27.8280576 120.416053,27.8199893 C119.313161,27.8199893 118.888071,28.0727005 118.832842,28.5982059 C118.772593,29.1755924 119.278016,29.3563395 120.267104,29.5739055 L121.046994,29.7412639 C122.832709,30.1211675 123.892087,30.8441558 123.71134,32.5997456 C123.543982,34.2448788 122.10972,35.6121971 119.180948,35.6121971 C117.751707,35.6121971 116.518276,35.3042576 115.596131,34.7988352 L115.979381,32.815638 C117.033016,33.3358893 118.191645,33.6083732 119.366716,33.612264 C120.452872,33.612264 120.968336,33.3394698 121.030258,32.7620833 Z" id="Shape" fill="#000000" fill-rule="nonzero"></path>
            </g>
        </g>
    </g>
</svg>