<?xml version="1.0" encoding="UTF-8"?>
<svg width="172px" height="91px" viewBox="0 0 172 91" version="1.1" xmlns="http://www.w3.org/2000/svg" xmlns:xlink="http://www.w3.org/1999/xlink">
    <!-- Generator: Sketch 48.2 (47327) - http://www.bohemiancoding.com/sketch -->
    <title>tec-tab-rgb-orn-147-77</title>
    <desc>Created with Sketch.</desc>
    <defs></defs>
    <g id="DataPage---TE" stroke="none" stroke-width="1" fill="none" fill-rule="evenodd" transform="translate(-30.000000, 0.000000)">
        <g id="Group-16" fill-rule="nonzero">
            <g id="tec-tab-rgb-orn-147-77" transform="translate(30.000000, 0.000000)">
                <rect id="Rectangle-path" fill="#E98300" x="0" y="0" width="171.511667" height="90.0316667"></rect>
                <path d="M73.1733333,32.865 L38.6983333,32.865 C35.9051532,32.865 33.6408333,30.6006801 33.6408333,27.8075 C33.6408333,25.0143199 35.9051532,22.75 38.6983333,22.75 L73.1733333,22.75 C75.9665135,22.75 78.2308333,25.0143199 78.2308333,27.8075 C78.2308333,30.6006801 75.9665135,32.865 73.1733333,32.865 Z M71.47,53.13 C71.47,51.7871205 70.9365432,50.4992419 69.986984,49.5496827 C69.0374248,48.6001235 67.7495462,48.0666667 66.4066667,48.0666667 L31.9316667,48.0666667 C29.1384865,48.0666667 26.8741667,50.3309865 26.8741667,53.1241667 C26.8741667,55.9173468 29.1384865,58.1816667 31.9316667,58.1816667 L66.4066667,58.1816667 C69.1985187,58.1816741 71.4635672,55.9218446 71.47,53.13 Z M16.7183333,40.425 C16.7152345,41.7698997 17.2473229,43.0607776 18.1972182,44.0128616 C19.1471135,44.9649456 20.4367633,45.5000036 21.7816667,45.5 L56.2566667,45.5 C59.0498468,45.5 61.3141667,43.2356801 61.3141667,40.4425 C61.3141667,37.6493199 59.0498468,35.385 56.2566667,35.385 L21.7816667,35.385 C20.4418803,35.3819022 19.1557379,35.9111613 18.2061779,36.8563454 C17.2566179,37.8015295 16.721424,39.0852136 16.7183333,40.425 Z M88.1183333,23.03 L85.9716667,30.9633333 L96.635,30.9633333 L89.3783333,57.8783333 L98.56,57.8783333 L105.77,30.9633333 L116.433333,30.9633333 L118.533333,23.03 L88.13,23.03 L88.1183333,23.03 Z M121.193333,23.03 L111.86,57.8783333 L139.86,57.8783333 L141.901667,50.1666667 L122.908333,50.1666667 L124.623333,43.8316667 L141.586667,43.8316667 L143.511667,36.7966667 L126.513333,36.7966667 L128.181667,30.7183333 L147.116667,30.7183333 L149.205,23.0416667 L121.205,23.0416667 L121.193333,23.03 Z M80.71,70.8633333 C81.4760193,70.8641007 82.20919,70.5522925 82.74,70 L81.97,69.02 C81.659983,69.3340701 81.244,69.5212625 80.8033333,69.545 C80.5042016,69.5472947 80.2186132,69.4204667 80.0197364,69.1970096 C79.8208595,68.9735525 79.7280188,68.6751792 79.765,68.3783333 C79.7138197,67.4564068 80.378645,66.6494814 81.2933333,66.5233333 C81.7856057,66.5086089 82.2413346,66.7820462 82.46,67.2233333 L83.6266667,66.4066667 C83.1824369,65.6325189 82.3355046,65.1796139 81.445,65.24 C80.5843679,65.2113752 79.749294,65.5350259 79.1327406,66.1361656 C78.5161871,66.7373052 78.1715024,67.5639191 78.1783333,68.425 C78.1554973,69.0940734 78.4211458,69.7407247 78.9077304,70.2005248 C79.394315,70.6603249 80.0549559,70.8889746 80.7216667,70.8283333 L80.71,70.8633333 Z M86.205,70.8633333 C87.8904493,70.8262772 89.2479438,69.4687826 89.285,67.7833333 C89.3221875,67.1040907 89.0611022,66.4424406 88.5701026,65.9716192 C88.0791031,65.5007977 87.4070854,65.2676914 86.73,65.3333333 C85.0445507,65.3703895 83.6870562,66.7278841 83.65,68.4133333 C83.6228934,69.0888702 83.8901263,69.7429535 84.3825138,70.2062454 C84.8749013,70.6695372 85.54403,70.896485 86.2166667,70.8283333 L86.205,70.8633333 Z M86.275,69.5683333 C85.9596465,69.5891956 85.6506236,69.472995 85.4271476,69.249519 C85.2036716,69.0260431 85.0874711,68.7170201 85.1083333,68.4016667 C85.0958778,67.5135438 85.7549509,66.7588799 86.6366667,66.6516667 C86.9520201,66.6308044 87.2610431,66.747005 87.484519,66.970481 C87.707995,67.1939569 87.8241956,67.5029799 87.8033333,67.8183333 C87.8046043,68.6936523 87.1548409,69.4333829 86.2866667,69.545 L86.275,69.5683333 Z M89.495,70.735 L91.0116667,70.735 L91.8166667,67.6666667 C91.8711535,67.063659 92.3778739,66.6025433 92.9833333,66.605 C93.1718599,66.5728747 93.3647727,66.6281244 93.5077104,66.75518 C93.650648,66.8822357 93.728134,67.0673405 93.7183333,67.2583333 C93.713185,67.4199138 93.6897011,67.5803867 93.6483333,67.7366667 L92.8666667,70.665 L94.3833333,70.665 L95.1533333,67.8066667 C95.2516414,67.476454 95.3103861,67.1357347 95.3283333,66.7916667 C95.3335837,66.3804283 95.1635514,65.986393 94.8607506,65.7080834 C94.5579497,65.4297738 94.1510049,65.2934993 93.7416667,65.3333333 C93.1950597,65.363968 92.6793952,65.5968487 92.295,65.9866667 L92.435,65.3333333 L90.9183333,65.3333333 L89.495,70.735 Z M95.655,70.735 L97.16,70.735 L98.0116667,67.6666667 C98.0661535,67.063659 98.5728739,66.6025433 99.1783333,66.605 C99.3668599,66.5728747 99.5597727,66.6281244 99.7027104,66.75518 C99.845648,66.8822357 99.923134,67.0673405 99.9133333,67.2583333 C99.9088083,67.4199685 99.885314,67.5805128 99.8433333,67.7366667 L99.0616667,70.665 L100.566667,70.665 L101.336667,67.8066667 C101.431424,67.4915436 101.490132,67.1666895 101.511667,66.8383333 C101.532058,66.4122822 101.363392,65.9989467 101.050747,65.7087942 C100.738102,65.4186417 100.313347,65.2812482 99.89,65.3333333 C99.3392991,65.3611091 98.8189895,65.5942077 98.4316667,65.9866667 L98.595,65.3333333 L97.0783333,65.3333333 L95.655,70.735 Z M103.565,68.6 L107.216667,68.6 C107.376706,68.2307935 107.467656,67.8353597 107.485,67.4333333 C107.513885,66.8555635 107.292021,66.293436 106.876315,65.8911407 C106.46061,65.4888454 105.891513,65.2855252 105.315,65.3333333 C103.567749,65.3524537 102.159606,66.7709891 102.153333,68.5183333 C102.118895,69.170091 102.371926,69.8041815 102.845613,70.2531741 C103.3193,70.7021668 103.966017,70.920918 104.615,70.8516667 C105.357229,70.869096 106.081277,70.6208509 106.656667,70.1516667 L105.968333,69.2183333 C105.634732,69.4801568 105.225604,69.627443 104.801667,69.6383333 C104.493068,69.6864048 104.178957,69.5961559 103.94294,69.3916077 C103.706923,69.1870594 103.572945,68.888965 103.576667,68.5766667 L103.565,68.6 Z M103.705,67.6666667 C103.896957,66.9949852 104.500164,66.5237301 105.198333,66.5 C105.422895,66.4648222 105.651395,66.5322303 105.820907,66.683661 C105.990419,66.8350918 106.083066,67.0545744 106.073333,67.2816667 C106.090933,67.3976696 106.090933,67.5156637 106.073333,67.6316667 L103.74,67.6316667 L103.705,67.6666667 Z M110.705,70.8633333 C111.462911,70.8577836 112.186481,70.5464801 112.711667,70 L111.941667,69.02 C111.632307,69.3350147 111.215938,69.5223809 110.775,69.545 C110.475868,69.5472947 110.19028,69.4204667 109.991403,69.1970096 C109.792526,68.9735525 109.699685,68.6751792 109.736667,68.3783333 C109.685486,67.4564068 110.350312,66.6494814 111.265,66.5233333 C111.756508,66.5115207 112.210792,66.784091 112.431667,67.2233333 L113.598333,66.4066667 C113.154104,65.6325189 112.307171,65.1796139 111.416667,65.24 C109.688703,65.2527061 108.291039,66.6503701 108.278333,68.3783333 C108.245416,69.029475 108.486427,69.6646912 108.942987,70.1301172 C109.399548,70.5955432 110.030012,70.8487241 110.681667,70.8283333 L110.705,70.8633333 Z M115.278333,70.8633333 C115.65547,70.8680292 116.029294,70.7924691 116.375,70.6416667 L116.725,69.3583333 C116.482359,69.4667955 116.220685,69.5262668 115.955,69.5333333 C115.840068,69.5821666 115.707351,69.5612036 115.613065,69.4793238 C115.518779,69.3974439 115.479423,69.2689754 115.511667,69.1483333 C115.503869,69.070751 115.503869,68.9925824 115.511667,68.915 L116.106667,66.675 L117.355,66.675 L117.705,65.38 L116.491667,65.38 L116.853333,64.015 L115.348333,64.015 L114.986667,65.3333333 L114.345,65.3333333 L113.995,66.6283333 L114.636667,66.6283333 L113.995,69.09 C113.935547,69.3067568 113.90418,69.5302517 113.901667,69.755 C113.929797,70.0789736 114.091867,70.3765048 114.348797,70.5758468 C114.605727,70.7751889 114.934197,70.8582497 115.255,70.805 L115.278333,70.8633333 Z M117.53,70.77 L119.011667,70.77 L120.446667,65.3333333 L118.93,65.3333333 L117.53,70.77 Z M119.011667,64.7966667 L120.598333,64.7966667 L120.971667,63.455 L119.385,63.455 L119.011667,64.7966667 Z M121.928333,70.7466667 L123.293333,70.7466667 L126.793333,65.38 L125.171667,65.38 L123.06,68.88 L122.815,65.38 L121.345,65.38 L121.928333,70.7466667 Z M126.35,70.7466667 L127.866667,70.7466667 L129.325,65.3333333 L127.82,65.3333333 L126.35,70.7466667 Z M127.901667,64.8316667 L129.511667,64.8316667 L129.873333,63.49 L128.345,63.49 L127.901667,64.8316667 Z M131.226667,70.84 C131.603837,70.8450538 131.977735,70.7694786 132.323333,70.6183333 L132.673333,69.335 C132.426889,69.444375 132.161222,69.5038528 131.891667,69.51 C131.794061,69.5352026 131.690286,69.5139294 131.610468,69.4523559 C131.530651,69.3907824 131.483732,69.2958066 131.483333,69.195 C131.475536,69.1174176 131.475536,69.039249 131.483333,68.9616667 L132.078333,66.7216667 L133.326667,66.7216667 L133.676667,65.4266667 L132.428333,65.4266667 L132.79,64.0616667 L131.285,64.0616667 L131.005,65.3333333 L130.363333,65.3333333 L130.013333,66.6283333 L130.678333,66.6283333 L130.036667,69.0433333 C129.973888,69.2597129 129.93861,69.4831376 129.931667,69.7083333 C129.948058,70.0359278 130.101596,70.3414893 130.354664,70.5501596 C130.607732,70.7588298 130.936951,70.8513304 131.261667,70.805 L131.226667,70.84 Z M134.33,72.3333333 C135.284574,72.2985997 136.133821,71.7172969 136.511667,70.84 L139.825,65.3333333 L138.191667,65.3333333 L136.196667,68.95 L135.951667,65.3333333 L134.411667,65.3333333 L135.065,70.7 C134.947124,70.9095881 134.72196,71.0356803 134.481667,71.0266667 C134.270517,71.0169766 134.067208,70.9437853 133.898333,70.8166667 L133.093333,71.9133333 C133.448035,72.1857372 133.882767,72.3333818 134.33,72.3333333 Z" id="Shape" fill="#FFFFFF"></path>
            </g>
        </g>
    </g>
</svg>